PathFileType	3	(X/Y/Z)	dance_move_1__view1_aligned.trc
DataRate	CameraRate	NumFrames	NumMarkers	Units	OrigDataRate	OrigDataStartFrame	OrigNumFrames
100.0	100.0	15	19	mm	100.0	483	890
Frame#	Time	pelvis			neck			head			hip_left			hip_right			knee_left			knee_right			ankle_left			ankle_right			heel_left			heel_right			toe_left			toe_right			shoulder_left			shoulder_right			elbow_left			elbow_right			wrist_left			wrist_right			
		X1	Y1	Z1	X2	Y2	Z2	X3	Y3	Z3	X4	Y4	Z4	X5	Y5	Z5	X6	Y6	Z6	X7	Y7	Z7	X8	Y8	Z8	X9	Y9	Z9	X10	Y10	Z10	X11	Y11	Z11	X12	Y12	Z12	X13	Y13	Z13	X14	Y14	Z14	X15	Y15	Z15	X16	Y16	Z16	X17	Y17	Z17	X18	Y18	Z18	X19	Y19	Z19	
483	4.82000	125.479408	737.641958	108.405955	94.479366	1190.380029	-201.531477	88.224970	1218.421656	-369.904580	47.380717	740.233814	119.173862	203.578021	735.050104	97.638141	-136.367096	512.272167	-173.286533	271.947777	470.773823	-210.561818	-85.099399	179.896548	19.391959	265.535586	131.956135	-32.332896	-65.545184	140.920616	57.984361	263.203366	95.371850	12.410834	-188.001369	116.928980	-121.882508	265.366345	50.207117	-203.462960	-89.445336	1159.330472	-148.577089	279.613828	1139.221775	-169.905851	-161.350937	899.832958	-105.851925	307.848569	865.660860	-196.672758	-89.297498	688.760783	-202.120271	309.035462	646.739823	-289.677620
484	4.83000	126.875678	738.808336	107.553784	95.359970	1191.774184	-202.343813	88.883397	1219.597913	-370.459317	48.421044	741.285283	118.132905	205.330249	736.331389	96.974737	-137.614996	514.127187	-172.650465	277.989255	470.470237	-207.943687	-83.487913	181.139763	17.436971	266.574825	131.324457	-31.639503	-63.350616	142.046514	55.596137	263.431963	94.539650	12.841740	-187.588250	118.383327	-123.216796	266.405174	50.531449	-203.215846	-88.193474	1161.257465	-148.889263	280.291324	1141.178283	-170.159646	-165.516095	903.454087	-105.172857	314.138494	868.164258	-195.233097	-99.113442	690.968803	-202.401267	322.194975	647.983366	-287.002632
485	4.84000	128.271948	739.974713	106.701612	96.240574	1193.168340	-203.156149	89.541824	1220.774170	-371.014054	49.461370	742.336753	117.091948	207.082478	737.612674	96.311333	-138.862896	515.982207	-172.014398	284.030733	470.166652	-205.325555	-81.876427	182.382978	15.481983	267.614065	130.692779	-30.946110	-61.156049	143.172413	53.207913	263.660560	93.707450	13.272647	-187.175132	119.837674	-124.551083	267.444003	50.855781	-202.968731	-86.941612	1163.184458	-149.201438	280.968821	1143.134791	-170.413441	-169.681253	907.075216	-104.493790	320.428419	870.667657	-193.793435	-108.929386	693.176823	-202.682263	335.354487	649.226909	-284.327643
486	4.85000	129.668217	741.141091	105.849441	97.121177	1194.562495	-203.968485	90.200250	1221.950428	-371.568791	50.501697	743.388223	116.050990	208.834707	738.893959	95.647929	-140.110796	517.837226	-171.378330	290.072212	469.863067	-202.707424	-80.264941	183.626194	13.526995	268.653305	130.061101	-30.252717	-58.961481	144.298311	50.819688	263.889157	92.875250	13.703553	-186.762014	121.292021	-125.885370	268.482833	51.180113	-202.721617	-85.689750	1165.111451	-149.513612	281.646317	1145.091300	-170.667236	-173.846411	910.696345	-103.814722	326.718344	873.171055	-192.353774	-118.745330	695.384843	-202.963259	348.514000	650.470452	-281.652654
487	4.86000	131.064487	742.307468	104.997270	98.001781	1195.956650	-204.780820	90.858677	1223.126685	-372.123528	51.542023	744.439693	115.010033	210.586936	740.175245	94.984525	-141.358697	519.692246	-170.742263	296.113690	469.559482	-200.089292	-78.653455	184.869409	11.572007	269.692545	129.429423	-29.559325	-56.766914	145.424209	48.431464	264.117754	92.043051	14.134460	-186.348896	122.746367	-127.219658	269.521662	51.504445	-202.474503	-84.437888	1167.038444	-149.825787	282.323814	1147.047808	-170.921031	-178.011569	914.317474	-103.135654	333.008269	875.674453	-190.914113	-128.561274	697.592864	-203.244255	361.673512	651.713995	-278.977666
488	4.87000	132.460757	743.473846	104.145098	98.882385	1197.350805	-205.593156	91.517104	1224.302942	-372.678265	52.582349	745.491162	113.969076	212.339164	741.456530	94.321121	-142.606597	521.547266	-170.106195	302.155169	469.255897	-197.471161	-77.041969	186.112624	9.617019	270.731784	128.797745	-28.865932	-54.572346	146.550108	46.043240	264.346351	91.210851	14.565366	-185.935778	124.200714	-128.553945	270.560491	51.828777	-202.227389	-83.186026	1168.965437	-150.137961	283.001310	1149.004316	-171.174826	-182.176726	917.938603	-102.456586	339.298194	878.177851	-189.474452	-138.377218	699.800884	-203.525250	374.833025	652.957538	-276.302677
489	4.88000	134.778162	744.248503	102.199142	100.381192	1198.530340	-207.310660	93.004106	1225.198348	-374.132056	54.734281	746.165409	112.067731	214.822025	742.331597	92.330569	-143.601145	522.474357	-169.729540	307.975379	469.651786	-197.770631	-76.130311	186.805069	8.467506	273.132800	128.776807	-30.592738	-53.236561	147.196794	44.579399	266.138872	91.050153	12.658055	-186.005409	124.947668	-129.107620	273.204398	52.389312	-204.276391	-81.572899	1170.526269	-151.157230	284.433723	1150.323002	-172.813880	-184.801590	920.215830	-102.759327	344.768335	879.615241	-190.188698	-144.317086	701.450306	-205.209246	385.231044	653.281088	-276.166207
490	4.89000	137.095568	745.023160	100.253186	101.880000	1199.709875	-209.028163	94.491107	1226.093754	-375.585846	56.886212	746.839655	110.166385	217.304886	743.206665	90.340018	-144.595694	523.401448	-169.352885	313.795589	470.047675	-198.070102	-75.218653	187.497514	7.317992	275.533815	128.755868	-32.319543	-51.900776	147.843480	43.115558	267.931394	90.889455	10.750743	-186.075040	125.694622	-129.661296	275.848304	52.949846	-206.325394	-79.959773	1172.087101	-152.176498	285.866136	1151.641689	-174.452934	-187.426454	922.493057	-103.062068	350.238476	881.052630	-190.902944	-150.256955	703.099728	-206.893242	395.629064	653.604639	-276.029736
491	4.90000	139.412973	745.797817	98.307230	103.378807	1200.889411	-210.745667	95.978109	1226.989160	-377.039637	59.038143	747.513901	108.265040	219.787746	744.081732	88.349466	-145.590243	524.328540	-168.976229	319.615798	470.443564	-198.369572	-74.306995	188.189959	6.168479	277.934831	128.734929	-34.046349	-50.564991	148.490166	41.651717	269.723915	90.728757	8.843432	-186.144671	126.441576	-130.214971	278.492211	53.510380	-208.374396	-78.346646	1173.647933	-153.195767	287.298549	1152.960375	-176.091989	-190.051317	924.770284	-103.364808	355.708618	882.490020	-191.617190	-156.196823	704.749150	-208.577237	406.027084	653.928189	-275.893266
492	4.91000	141.730378	746.572474	96.361274	104.877615	1202.068946	-212.463170	97.465110	1227.884566	-378.493428	61.190074	748.188147	106.363695	222.270607	744.956800	86.358915	-146.584791	525.255631	-168.599574	325.436008	470.839453	-198.669043	-73.395336	188.882404	5.018965	280.335846	128.713990	-35.773155	-49.229206	149.136852	40.187876	271.516437	90.568060	6.936121	-186.214302	127.188530	-130.768647	281.136118	54.070914	-210.423399	-76.733519	1175.208765	-154.215036	288.730962	1154.279061	-177.731043	-192.676181	927.047511	-103.667549	361.178759	883.927409	-192.331436	-162.136692	706.398572	-210.261233	416.425104	654.251740	-275.756795
493	4.92000	144.047784	747.347131	94.415318	106.376422	1203.248481	-214.180674	98.952112	1228.779972	-379.947218	63.342005	748.862394	104.462350	224.753468	745.831867	84.368364	-147.579340	526.182722	-168.222918	331.256218	471.235342	-198.968513	-72.483678	189.574850	3.869452	282.736861	128.693051	-37.499961	-47.893421	149.783538	38.724036	273.308958	90.407362	5.028810	-186.283934	127.935484	-131.322322	283.780025	54.631449	-212.472401	-75.120392	1176.769598	-155.234304	290.163375	1155.597747	-179.370097	-195.301045	929.324738	-103.970290	366.648900	885.364798	-193.045683	-168.076560	708.047995	-211.945229	426.823124	654.575290	-275.620325
494	4.93000	146.365189	748.121787	92.469362	107.875229	1204.428016	-215.898177	100.439113	1229.675377	-381.401009	65.493936	749.536640	102.561004	227.236329	746.706935	82.377812	-148.573888	527.109813	-167.846263	337.076428	471.631231	-199.267984	-71.572020	190.267295	2.719938	285.137877	128.672112	-39.226767	-46.557636	150.430224	37.260195	275.101480	90.246664	3.121499	-186.353565	128.682438	-131.875998	286.423931	55.191983	-214.521404	-73.507266	1178.330430	-156.253573	291.595788	1156.916433	-181.009151	-197.925908	931.601964	-104.273030	372.119041	886.802188	-193.759929	-174.016428	709.697417	-213.629224	437.221144	654.898841	-275.483855
495	4.94000	148.682595	748.896444	90.523406	109.374037	1205.607551	-217.615681	101.926115	1230.570783	-382.854799	67.645867	750.210886	100.659659	229.719189	747.582003	80.387261	-149.568437	528.036904	-167.469608	342.896638	472.027119	-199.567454	-70.660362	190.959740	1.570425	287.538892	128.651174	-40.953573	-45.221851	151.076910	35.796354	276.894001	90.085966	1.214187	-186.423196	129.429392	-132.429673	289.067838	55.752517	-216.570406	-71.894139	1179.891262	-157.272842	293.028202	1158.235119	-182.648206	-200.550772	933.879191	-104.575771	377.589182	888.239577	-194.474175	-179.956297	711.346839	-215.313220	447.619164	655.222391	-275.347384
496	4.95000	151.000000	749.671101	88.577450	110.872844	1206.787087	-219.333184	103.413117	1231.466189	-384.308590	69.797798	750.885133	98.758314	232.202050	748.457070	78.396709	-150.562985	528.963996	-167.092952	348.716847	472.423008	-199.866925	-69.748704	191.652185	0.420911	289.939908	128.630235	-42.680379	-43.886067	151.723597	34.332513	278.686523	89.925268	-0.693124	-186.492827	130.176346	-132.983348	291.711745	56.313051	-218.619409	-70.281012	1181.452094	-158.292110	294.460615	1159.553806	-184.287260	-203.175636	936.156418	-104.878512	383.059324	889.676966	-195.188421	-185.896165	712.996261	-216.997216	458.017184	655.545942	-275.210914
497	4.96000	153.317405	750.445758	86.631494	112.371651	1207.966622	-221.050688	104.900118	1232.361595	-385.762381	71.949729	751.559379	96.856968	234.684911	749.332138	76.406158	-151.557534	529.891087	-166.716297	354.537057	472.818897	-200.166395	-68.837046	192.344630	-0.728602	292.340923	128.609296	-44.407184	-42.550282	152.370283	32.868672	280.479044	89.764571	-2.600435	-186.562459	130.923300	-133.537024	294.355652	56.873586	-220.668411	-68.667885	1183.012927	-159.311379	295.893028	1160.872492	-185.926314	-205.800499	938.433645	-105.181253	388.529465	891.114356	-195.902667	-191.836034	714.645683	-218.681211	468.415204	655.869492	-275.074443
